<svg width="23" height="23" viewBox="0 0 23 23" fill="none" xmlns="http://www.w3.org/2000/svg">
<path d="M11.7767 0.363281C14.7382 0.363281 15.1077 0.374181 16.2696 0.42868C17.4304 0.483178 18.2206 0.665204 18.916 0.935518C19.6354 1.21237 20.2414 1.58732 20.8475 2.19226C21.4017 2.73713 21.8306 3.39623 22.1042 4.12369C22.3734 4.81801 22.5565 5.60933 22.611 6.77015C22.6623 7.93207 22.6764 8.30157 22.6764 11.263C22.6764 14.2245 22.6655 14.594 22.611 15.7559C22.5565 16.9167 22.3734 17.707 22.1042 18.4024C21.8314 19.1302 21.4024 19.7895 20.8475 20.3338C20.3024 20.8879 19.6434 21.3167 18.916 21.5905C18.2217 21.8598 17.4304 22.0429 16.2696 22.0974C15.1077 22.1486 14.7382 22.1628 11.7767 22.1628C8.81524 22.1628 8.44574 22.1519 7.28382 22.0974C6.123 22.0429 5.33277 21.8598 4.63737 21.5905C3.90962 21.3175 3.2504 20.8885 2.70593 20.3338C2.15158 19.789 1.7227 19.1299 1.44919 18.4024C1.17888 17.708 0.99685 16.9167 0.942352 15.7559C0.891123 14.594 0.876953 14.2245 0.876953 11.263C0.876953 8.30157 0.887853 7.93207 0.942352 6.77015C0.99685 5.60824 1.17888 4.8191 1.44919 4.12369C1.72194 3.39579 2.15092 2.73651 2.70593 2.19226C3.25056 1.63771 3.90973 1.20881 4.63737 0.935518C5.33277 0.665204 6.12191 0.483178 7.28382 0.42868C8.44574 0.377451 8.81524 0.363281 11.7767 0.363281ZM11.7767 5.81315C10.3313 5.81315 8.94511 6.38734 7.92306 7.40939C6.90101 8.43143 6.32683 9.81763 6.32683 11.263C6.32683 12.7084 6.90101 14.0946 7.92306 15.1167C8.94511 16.1387 10.3313 16.7129 11.7767 16.7129C13.2221 16.7129 14.6083 16.1387 15.6303 15.1167C16.6524 14.0946 17.2266 12.7084 17.2266 11.263C17.2266 9.81763 16.6524 8.43143 15.6303 7.40939C14.6083 6.38734 13.2221 5.81315 11.7767 5.81315ZM18.8615 5.54066C18.8615 5.17931 18.718 4.83276 18.4625 4.57725C18.207 4.32174 17.8604 4.17819 17.4991 4.17819C17.1377 4.17819 16.7912 4.32174 16.5357 4.57725C16.2801 4.83276 16.1366 5.17931 16.1366 5.54066C16.1366 5.90201 16.2801 6.24856 16.5357 6.50407C16.7912 6.75958 17.1377 6.90313 17.4991 6.90313C17.8604 6.90313 18.207 6.75958 18.4625 6.50407C18.718 6.24856 18.8615 5.90201 18.8615 5.54066ZM11.7767 7.9931C12.6439 7.9931 13.4757 8.33761 14.0889 8.95084C14.7021 9.56407 15.0466 10.3958 15.0466 11.263C15.0466 12.1303 14.7021 12.962 14.0889 13.5752C13.4757 14.1884 12.6439 14.533 11.7767 14.533C10.9095 14.533 10.0777 14.1884 9.46451 13.5752C8.85128 12.962 8.50678 12.1303 8.50678 11.263C8.50678 10.3958 8.85128 9.56407 9.46451 8.95084C10.0777 8.33761 10.9095 7.9931 11.7767 7.9931Z" fill="#F8F8F8"/>
</svg>
