<svg width="31" height="31" viewBox="0 0 31 31" fill="none" xmlns="http://www.w3.org/2000/svg">
<path d="M8.25846 24.6654C8.16254 24.6646 8.06982 24.6308 7.99596 24.5696C6.11992 23.0521 4.76052 20.9903 4.10502 18.6682C3.44952 16.346 3.53015 13.8777 4.33583 11.6032C5.1415 9.32881 6.63257 7.36013 8.60366 5.96837C10.5747 4.57661 12.9289 3.83025 15.3418 3.83208C17.1261 3.8268 18.8873 4.23467 20.4876 5.02375C20.5865 5.07296 20.6618 5.15942 20.6969 5.26411C20.7321 5.3688 20.7243 5.48317 20.6751 5.58208C20.6511 5.6314 20.6176 5.67549 20.5766 5.71183C20.5355 5.74817 20.4876 5.77604 20.4358 5.79384C20.3839 5.81165 20.329 5.81904 20.2743 5.81559C20.2195 5.81215 20.166 5.79793 20.1168 5.77375C17.6896 4.58183 14.9043 4.34074 12.3084 5.09785C9.71248 5.85497 7.49354 7.55554 6.08763 9.86542C4.72394 12.1065 4.21981 14.7664 4.66886 17.3511C5.1179 19.9358 6.48961 22.2697 8.5293 23.9196C8.57179 23.9543 8.60702 23.997 8.63296 24.0453C8.65891 24.0937 8.67505 24.1466 8.68047 24.2012C8.68589 24.2558 8.68048 24.3109 8.66455 24.3634C8.64862 24.4159 8.62248 24.4647 8.58763 24.5071C8.54839 24.5567 8.49836 24.5968 8.44132 24.6242C8.38429 24.6517 8.32175 24.6658 8.25846 24.6654ZM15.3418 27.1654C13.4801 27.1705 11.6448 26.7259 9.9918 25.8696C9.89345 25.8188 9.81932 25.7309 9.78572 25.6254C9.75212 25.5199 9.7618 25.4054 9.81263 25.3071C9.86346 25.2087 9.95128 25.1346 10.0568 25.101C10.1623 25.0674 10.2768 25.0771 10.3751 25.1279C12.4749 26.2117 14.8714 26.5793 17.1994 26.1746C19.5274 25.77 21.6593 24.6152 23.2701 22.8864C24.8809 21.1576 25.8823 18.9496 26.1217 16.5988C26.3611 14.248 25.8253 11.8834 24.596 9.86542C23.9486 8.80633 23.1257 7.86512 22.1626 7.08208C22.0774 7.01273 22.023 6.91253 22.0113 6.80328C21.9996 6.69403 22.0315 6.58458 22.1001 6.49875C22.1345 6.45595 22.177 6.42036 22.2252 6.39404C22.2734 6.36772 22.3263 6.35118 22.3809 6.34537C22.4355 6.33956 22.4907 6.3446 22.5433 6.36019C22.596 6.37579 22.645 6.40164 22.6876 6.43625C23.7237 7.27895 24.6086 8.29207 25.3043 9.43208C26.3811 11.2008 26.9677 13.2242 27.0039 15.2946C27.0401 17.365 26.5247 19.4077 25.5105 21.213C24.4963 23.0183 23.0198 24.5212 21.2328 25.5672C19.4457 26.6133 17.4125 27.1649 15.3418 27.1654Z" fill="#777777"/>
<path d="M14.9241 26.7491C14.8208 26.7488 14.7213 26.7102 14.6449 26.6408C13.08 25.2374 11.8875 23.468 11.1741 21.4907C10.3828 19.5904 9.95866 17.5573 9.92407 15.4991C9.92866 13.4363 10.354 11.3961 11.1741 9.50325C11.9563 7.56299 13.139 5.80954 14.6449 4.35741C14.7277 4.29089 14.8329 4.25853 14.9388 4.26693C15.0447 4.27534 15.1434 4.32388 15.2147 4.40264C15.286 4.48139 15.3245 4.58441 15.3224 4.69063C15.3203 4.79685 15.2776 4.89824 15.2032 4.97408C13.7802 6.34377 12.6615 7.99769 11.9199 9.82825C11.1522 11.6202 10.7567 13.5496 10.7574 15.4991C10.7842 17.4475 11.18 19.3731 11.9241 21.1741C12.5976 23.0379 13.7246 24.7047 15.2032 26.0241C15.2654 26.0806 15.309 26.1546 15.3284 26.2363C15.3478 26.3181 15.342 26.4037 15.3118 26.4821C15.2816 26.5605 15.2285 26.628 15.1593 26.6756C15.0901 26.7233 15.0081 26.7489 14.9241 26.7491Z" fill="#777777"/>
<path d="M15.7575 26.747C15.6734 26.7468 15.5915 26.7212 15.5223 26.6735C15.4531 26.6259 15.3999 26.5585 15.3697 26.4801C15.3395 26.4017 15.3337 26.316 15.3531 26.2342C15.3725 26.1525 15.4161 26.0785 15.4783 26.022C16.957 24.7026 18.0839 23.0358 18.7575 21.172C19.5015 19.3711 19.8974 17.4454 19.9241 15.497C19.9248 13.5475 19.5293 11.6182 18.7616 9.82618C18.02 7.99562 16.9013 6.3417 15.4783 4.97201C15.434 4.93645 15.3975 4.89221 15.3709 4.84202C15.3443 4.79182 15.3283 4.73672 15.3238 4.6801C15.3193 4.62349 15.3265 4.56655 15.3448 4.51279C15.3631 4.45903 15.3922 4.40958 15.4303 4.36748C15.4684 4.32538 15.5147 4.29151 15.5664 4.26797C15.6181 4.24442 15.6741 4.23169 15.7308 4.23055C15.7876 4.22942 15.844 4.2399 15.8966 4.26136C15.9492 4.28282 15.9968 4.3148 16.0366 4.35535C17.5501 5.80546 18.7399 7.55906 19.5283 9.50118C20.3412 11.3955 20.7594 13.4356 20.7575 15.497C20.7229 17.5552 20.2987 19.5883 19.5075 21.4887C18.7893 23.4676 17.5909 25.2373 16.02 26.6387C15.9478 26.7044 15.8549 26.7428 15.7575 26.747Z" fill="#777777"/>
<path d="M26.5907 15.9167H4.09074C3.98023 15.9167 3.87425 15.8728 3.79611 15.7946C3.71797 15.7165 3.67407 15.6105 3.67407 15.5C3.67407 15.3895 3.71797 15.2835 3.79611 15.2054C3.87425 15.1272 3.98023 15.0833 4.09074 15.0833H26.5907C26.7012 15.0833 26.8072 15.1272 26.8854 15.2054C26.9635 15.2835 27.0074 15.3895 27.0074 15.5C27.0074 15.6105 26.9635 15.7165 26.8854 15.7946C26.8072 15.8728 26.7012 15.9167 26.5907 15.9167ZM24.9241 10.0833H5.75741C5.6469 10.0833 5.54092 10.0394 5.46278 9.96129C5.38464 9.88315 5.34074 9.77717 5.34074 9.66667C5.34074 9.55616 5.38464 9.45018 5.46278 9.37204C5.54092 9.2939 5.6469 9.25 5.75741 9.25H24.9241C25.0346 9.25 25.1406 9.2939 25.2187 9.37204C25.2968 9.45018 25.3407 9.55616 25.3407 9.66667C25.3407 9.77717 25.2968 9.88315 25.2187 9.96129C25.1406 10.0394 25.0346 10.0833 24.9241 10.0833ZM24.9241 21.75H5.75741C5.6469 21.75 5.54092 21.7061 5.46278 21.628C5.38464 21.5498 5.34074 21.4438 5.34074 21.3333C5.34074 21.2228 5.38464 21.1168 5.46278 21.0387C5.54092 20.9606 5.6469 20.9167 5.75741 20.9167H24.9241C25.0346 20.9167 25.1406 20.9606 25.2187 21.0387C25.2968 21.1168 25.3407 21.2228 25.3407 21.3333C25.3407 21.4438 25.2968 21.5498 25.2187 21.628C25.1406 21.7061 25.0346 21.75 24.9241 21.75Z" fill="#777777"/>
<path d="M15.3407 26.75C15.2302 26.75 15.1243 26.7061 15.0461 26.628C14.968 26.5498 14.9241 26.4438 14.9241 26.3333V4.66667C14.9241 4.55616 14.968 4.45018 15.0461 4.37204C15.1243 4.2939 15.2302 4.25 15.3407 4.25C15.4512 4.25 15.5572 4.2939 15.6354 4.37204C15.7135 4.45018 15.7574 4.55616 15.7574 4.66667V26.3333C15.7574 26.4438 15.7135 26.5498 15.6354 26.628C15.5572 26.7061 15.4512 26.75 15.3407 26.75Z" fill="#777777"/>
</svg>
