<svg width="55" height="55" viewBox="0 0 55 55" fill="none" xmlns="http://www.w3.org/2000/svg">
<circle cx="27.5" cy="27.5" r="27.5" fill="#D0A55A"/>
<g clip-path="url(#clip0_352_999)">
<path d="M21 29H32.86L29.23 33.36C29.146 33.4611 29.0826 33.5778 29.0437 33.7034C29.0047 33.829 28.9909 33.961 29.003 34.0919C29.0274 34.3564 29.1558 34.6003 29.36 34.77C29.5642 34.9397 29.8275 35.0214 30.0919 34.997C30.3563 34.9726 30.6003 34.8442 30.77 34.64L35.77 28.64C35.8036 28.5923 35.8337 28.5421 35.86 28.49C35.86 28.44 35.91 28.41 35.93 28.36C35.9753 28.2453 35.9991 28.1233 36 28C35.9991 27.8767 35.9753 27.7547 35.93 27.64C35.93 27.59 35.88 27.56 35.86 27.51C35.8337 27.4579 35.8036 27.4077 35.77 27.36L30.77 21.36C30.676 21.2471 30.5582 21.1563 30.4252 21.0941C30.2921 21.0319 30.1469 20.9998 30 21C29.7663 20.9995 29.5399 21.0809 29.36 21.23C29.2587 21.314 29.175 21.4171 29.1137 21.5334C29.0523 21.6497 29.0145 21.7771 29.0025 21.908C28.9904 22.039 29.0043 22.1711 29.0433 22.2967C29.0824 22.4223 29.1458 22.539 29.23 22.64L32.86 27H21C20.7348 27 20.4804 27.1054 20.2929 27.2929C20.1054 27.4804 20 27.7348 20 28C20 28.2652 20.1054 28.5196 20.2929 28.7071C20.4804 28.8946 20.7348 29 21 29Z" fill="white"/>
</g>
<defs>
<clipPath id="clip0_352_999">
<rect width="24" height="24" fill="white" transform="translate(16 16)"/>
</clipPath>
</defs>
</svg>
