<svg xmlns="http://www.w3.org/2000/svg" width="168" height="168" viewBox="0 0 168 168" fill="none">
<path d="M83.5329 0L148.842 31.451L164.972 102.121L119.777 158.794H47.2894L2.09435 102.121L18.2243 31.451L83.5329 0Z" fill="url(#paint0_radial_268_203)"/>
<path d="M120.524 64.5406V102.52C120.524 103.671 120.031 104.74 119.25 105.48L119.168 105.439L83.5312 87.6408V45.5508C83.819 45.5508 84.1067 45.5915 84.3944 45.633C84.6821 45.7152 84.9699 45.7974 85.2165 45.9207L85.3809 46.0029L118.099 60.8002C119.579 61.4578 120.524 62.9376 120.524 64.5406Z" fill="#E3C07C"/>
<path d="M117.897 106.35C118.144 106.226 118.39 106.103 118.596 105.98C118.472 106.062 118.349 106.144 118.226 106.226C118.103 106.267 118.02 106.308 117.897 106.35ZM119.253 105.486C119.048 105.692 118.842 105.856 118.596 105.98C118.801 105.815 119.007 105.651 119.171 105.445L119.253 105.486ZM49.0075 106.308C48.7202 106.185 48.4732 105.98 48.2266 105.774C48.5143 106.021 48.8842 106.226 49.2542 106.391C49.1719 106.391 49.0897 106.35 49.0075 106.308Z" fill="#262656"/>
<path d="M83.5361 45.5508V87.6408L47.8994 105.439L47.8583 105.48C47.0773 104.699 46.543 103.63 46.543 102.52V64.5406C46.543 62.9376 47.4883 61.4578 48.9681 60.8002L81.6865 46.0029C81.7687 45.9618 81.8098 45.9207 81.8509 45.9207C82.0975 45.7974 82.3848 45.7152 82.6729 45.633C82.9607 45.5919 83.2484 45.5508 83.5361 45.5508Z" fill="#D0A55A"/>
<path d="M48.2215 105.774C48.0982 105.692 47.9749 105.61 47.8516 105.486L47.8927 105.445C47.9749 105.569 48.0982 105.692 48.2215 105.774Z" fill="#262656"/>
<path d="M119.164 105.442C119 105.648 118.794 105.812 118.589 105.977C118.383 106.1 118.137 106.223 117.89 106.347C117.849 106.347 117.849 106.388 117.808 106.388L85.1304 120.199C84.5961 120.404 84.0617 120.527 83.5274 120.527C82.993 120.527 82.4587 120.404 81.9243 120.199L49.3704 106.429L49.247 106.388C48.8771 106.223 48.5072 106.018 48.2195 105.771C48.0961 105.689 47.9728 105.566 47.8906 105.442L83.5274 87.6445L119.164 105.442Z" fill="#D7BE83"/>
<path opacity="0.1" d="M120.529 64.5406V75.9263C109.555 67.9111 96.5659 63.924 83.5361 63.924C70.5063 63.924 57.5176 67.9111 46.543 75.9263V64.5406C46.543 62.9376 47.4883 61.4578 48.9681 60.8002L81.6865 46.0029C81.7687 45.9618 81.8098 45.9207 81.8509 45.9207C82.0975 45.7974 82.3848 45.7152 82.6729 45.633C82.9607 45.5919 83.2484 45.5508 83.5361 45.5508C83.8238 45.5508 84.1116 45.5915 84.3993 45.633C84.687 45.7152 84.9747 45.7974 85.2214 45.9207L85.3858 46.0029L118.104 60.8002C119.584 61.4578 120.529 62.9376 120.529 64.5406Z" fill="black"/>
<defs>
<radialGradient id="paint0_radial_268_203" cx="0" cy="0" r="1" gradientUnits="userSpaceOnUse" gradientTransform="translate(83.5329 83.5329) rotate(90) scale(83.5329)">
<stop stop-color="#9F8B43" stop-opacity="0.25"/>
<stop offset="1" stop-color="#B79727" stop-opacity="0.01"/>
</radialGradient>
</defs>
</svg>