<svg width="168" height="168" viewBox="0 0 168 168" fill="none" xmlns="http://www.w3.org/2000/svg">
<path d="M83.5759 0.414062L148.885 31.8651L165.014 102.535L119.819 159.208H47.3323L2.13731 102.535L18.2672 31.8651L83.5759 0.414062Z" fill="url(#paint0_radial_352_937)"/>
<path d="M48.2645 106.188C48.1412 106.106 48.0178 106.024 47.8945 105.9L47.9356 105.859C48.0178 105.983 48.1412 106.106 48.2645 106.188Z" fill="#262656"/>
<path fill-rule="evenodd" clip-rule="evenodd" d="M87.4559 46.4693L114.822 62.0538C117.047 63.3308 118.001 65.5557 118.001 67.7803V99.2731C118.001 101.827 116.411 104.052 114.505 105.005L87.4559 120.589C85.5489 121.861 83.0064 121.861 81.0939 120.589L53.7385 104.687C51.8315 103.734 50.5547 101.509 50.5547 99.2731V67.7803C50.5547 65.2376 52.1493 63.013 54.374 62.0538L81.0939 46.4693C83.3243 45.1977 85.5489 45.1977 87.4559 46.4693Z" fill="#D0A55A"/>
<path opacity="0.7" fill-rule="evenodd" clip-rule="evenodd" d="M87.4559 46.4693L99.5447 53.467V56.6507C99.5447 77.3262 83.0065 93.87 62.3253 93.87C58.1937 93.87 54.374 93.2343 50.5547 91.963V67.7802C50.5547 65.2375 52.1493 63.0129 54.374 62.0537L81.0939 46.4691C83.3243 45.1978 85.5489 45.1978 87.4559 46.4693Z" fill="#E3C07C"/>
<defs>
<radialGradient id="paint0_radial_352_937" cx="0" cy="0" r="1" gradientUnits="userSpaceOnUse" gradientTransform="translate(83.5759 83.947) rotate(90) scale(83.5329)">
<stop stop-color="#9F8B43" stop-opacity="0.25"/>
<stop offset="1" stop-color="#B79727" stop-opacity="0.01"/>
</radialGradient>
</defs>
</svg>
