<svg width="27" height="22" viewBox="0 0 27 22" fill="none" xmlns="http://www.w3.org/2000/svg">
<path d="M26.495 2.87025C25.5255 3.30055 24.4973 3.58314 23.4446 3.70869C24.5542 3.04282 25.3847 1.99488 25.7813 0.760138C24.7399 1.38196 23.5982 1.81774 22.4083 2.05347C21.609 1.19538 20.5495 0.626298 19.3946 0.434682C18.2397 0.243066 17.054 0.439659 16.022 0.993898C14.9899 1.54814 14.1692 2.42897 13.6876 3.49945C13.2059 4.56994 13.0902 5.7701 13.3585 6.91336C11.2467 6.80715 9.18077 6.25652 7.29482 5.29721C5.40887 4.3379 3.74507 2.99136 2.41145 1.34501C1.93939 2.15853 1.69133 3.08333 1.69265 4.02469C1.69265 5.87232 2.62988 7.50459 4.05478 8.46026C3.21154 8.43363 2.38685 8.20514 1.64947 7.79384V7.8601C1.64973 9.09062 2.07411 10.2832 2.85066 11.2356C3.62722 12.188 4.70815 12.8416 5.91019 13.0857C5.12741 13.2985 4.30662 13.3299 3.50997 13.1774C3.84888 14.2366 4.50944 15.1629 5.39915 15.8267C6.28887 16.4904 7.36319 16.8584 8.47171 16.879C7.36999 17.7472 6.10853 18.389 4.75946 18.7677C3.41038 19.1463 2.00014 19.2545 0.609375 19.086C3.03716 20.6526 5.86333 21.4842 8.74983 21.4815C18.5196 21.4815 23.8624 13.3609 23.8624 6.31829C23.8624 6.08893 23.856 5.85703 23.8459 5.63021C24.8858 4.87609 25.7833 3.94189 26.4963 2.87152L26.495 2.87025Z" fill="#F8F8F8"/>
</svg>
