<svg width="36" height="36" viewBox="0 0 36 36" fill="none" xmlns="http://www.w3.org/2000/svg">
<rect width="36" height="36" rx="18" fill="#D0A55A" fill-opacity="0.21"/>
<path d="M17.3575 17.6341C18.681 17.6341 19.827 17.1594 20.7635 16.2228C21.6998 15.2864 22.1747 14.1406 22.1747 12.8169C22.1747 11.4937 21.7 10.3477 20.7634 9.41098C19.8268 8.4747 18.6809 8 17.3575 8C16.0338 8 14.888 8.4747 13.9516 9.41113C13.0151 10.3476 12.5403 11.4935 12.5403 12.8169C12.5403 14.1406 13.0151 15.2865 13.9516 16.223C14.8883 17.1592 16.0342 17.6341 17.3575 17.6341ZM14.7804 10.2398C15.499 9.5213 16.3419 9.17203 17.3575 9.17203C18.373 9.17203 19.216 9.5213 19.9347 10.2398C20.6532 10.9585 21.0027 11.8016 21.0027 12.8169C21.0027 13.8325 20.6532 14.6754 19.9347 15.3941C19.216 16.1128 18.373 16.4621 17.3575 16.4621C16.3422 16.4621 15.4993 16.1126 14.7804 15.3941C14.0617 14.6756 13.7123 13.8325 13.7123 12.8169C13.7123 11.8016 14.0617 10.9585 14.7804 10.2398Z" fill="#D0A55A"/>
<path d="M25.7863 23.3784C25.7593 22.9887 25.7047 22.5636 25.6242 22.1147C25.5431 21.6624 25.4385 21.2348 25.3134 20.8441C25.184 20.4402 25.0084 20.0413 24.791 19.6591C24.5656 19.2623 24.3007 18.9169 24.0034 18.6326C23.6926 18.3352 23.3121 18.0961 22.872 17.9217C22.4335 17.7482 21.9475 17.6603 21.4276 17.6603C21.2234 17.6603 21.026 17.7441 20.6447 17.9923C20.41 18.1454 20.1355 18.3224 19.8291 18.5182C19.5671 18.6851 19.2122 18.8415 18.7738 18.9831C18.3461 19.1215 17.9118 19.1917 17.4831 19.1917C17.0546 19.1917 16.6203 19.1215 16.1923 18.9831C15.7544 18.8416 15.3993 18.6852 15.1378 18.5183C14.8343 18.3244 14.5596 18.1474 14.3214 17.9922C13.9404 17.7439 13.743 17.6602 13.5388 17.6602C13.0188 17.6602 12.533 17.7482 12.0946 17.9218C11.6548 18.0959 11.2741 18.3351 10.963 18.6328C10.6657 18.9172 10.4008 19.2625 10.1756 19.6591C9.9585 20.0413 9.78271 20.44 9.65332 20.8442C9.52835 21.235 9.42383 21.6624 9.34265 22.1147C9.26208 22.563 9.20761 22.9882 9.1806 23.3788C9.15405 23.7608 9.14062 24.1583 9.14062 24.5599C9.14062 25.6039 9.4725 26.4491 10.127 27.0724C10.7733 27.6875 11.6284 27.9994 12.6686 27.9994H22.2987C23.3386 27.9994 24.1937 27.6875 24.8402 27.0724C25.4948 26.4495 25.8267 25.604 25.8267 24.5597C25.8266 24.1567 25.813 23.7592 25.7863 23.3784ZM24.0321 26.2232C23.605 26.6297 23.038 26.8273 22.2986 26.8273H12.6686C11.929 26.8273 11.362 26.6297 10.9351 26.2234C10.5162 25.8247 10.3127 25.2804 10.3127 24.5599C10.3127 24.1851 10.325 23.8151 10.3497 23.4599C10.3738 23.1114 10.4231 22.7285 10.4962 22.3217C10.5684 21.92 10.6602 21.5429 10.7695 21.2016C10.8743 20.8743 11.0173 20.5502 11.1946 20.238C11.3638 19.9404 11.5585 19.6852 11.7734 19.4795C11.9743 19.287 12.2276 19.1296 12.5261 19.0115C12.8021 18.9022 13.1123 18.8424 13.4491 18.8334C13.4901 18.8552 13.5632 18.8969 13.6816 18.9741C13.9226 19.1311 14.2003 19.3102 14.5073 19.5063C14.8534 19.727 15.2992 19.9262 15.8319 20.0982C16.3765 20.2743 16.9319 20.3637 17.4832 20.3637C18.0345 20.3637 18.5901 20.2743 19.1344 20.0984C19.6675 19.9261 20.1132 19.727 20.4597 19.506C20.7739 19.3052 21.0439 19.1313 21.2848 18.9741C21.4032 18.897 21.4763 18.8552 21.5173 18.8334C21.8542 18.8424 22.1645 18.9022 22.4406 19.0115C22.739 19.1296 22.9922 19.2872 23.1932 19.4795C23.4081 19.685 23.6028 19.9403 23.772 20.2381C23.9494 20.5502 24.0926 20.8744 24.1972 21.2014C24.3066 21.5432 24.3987 21.9201 24.4707 22.3216C24.5436 22.7291 24.593 23.1121 24.6172 23.46V23.4603C24.642 23.8142 24.6545 24.1841 24.6547 24.5599C24.6545 25.2805 24.451 25.8247 24.0321 26.2232Z" fill="#D0A55A"/>
</svg>
